<svg width="565" height="175" viewBox="0 0 565 175" fill="none" xmlns="http://www.w3.org/2000/svg">
<g clip-path="url(#clip0_1_2)">
<path d="M1.11401 169.951L0.139008 154.097H2.29301L2.66001 161.938C2.68101 162.313 2.71801 163.33 2.76801 164.988C2.78101 165.447 2.78901 165.772 2.78901 165.959C2.78901 166.084 2.78501 166.438 2.78101 167.03C3.66001 165.23 4.29301 163.959 4.68101 163.226L9.50601 154.097H11.689L12.222 163.363C12.277 164.426 12.318 165.701 12.339 167.192C12.468 166.826 12.702 166.28 13.031 165.551C13.56 164.376 13.947 163.534 14.202 163.03L18.718 154.097H20.881L12.814 169.951H10.543L10.014 160.347C9.96401 159.526 9.92201 158.517 9.89701 157.317C9.45601 158.322 9.08901 159.101 8.79301 159.655L3.29701 169.951H1.11401Z" fill="#78B8BD"/>
<path d="M27.503 164.132C27.228 164.24 26.936 164.324 26.624 164.382C26.307 164.44 25.782 164.499 25.049 164.565C23.911 164.665 23.103 164.794 22.636 164.949C22.17 165.103 21.815 165.349 21.578 165.69C21.336 166.028 21.22 166.403 21.22 166.815C21.22 167.361 21.407 167.811 21.786 168.165C22.165 168.519 22.703 168.699 23.403 168.699C24.053 168.699 24.678 168.524 25.274 168.182C25.874 167.84 26.345 167.361 26.69 166.749C27.036 166.136 27.307 165.265 27.503 164.132ZM26.778 168.524C26.103 169.107 25.449 169.532 24.82 169.803C24.195 170.074 23.524 170.211 22.811 170.211C21.749 170.211 20.895 169.899 20.245 169.274C19.599 168.653 19.274 167.853 19.274 166.878C19.274 166.236 19.42 165.669 19.711 165.174C20.003 164.682 20.39 164.286 20.874 163.986C21.357 163.686 21.949 163.474 22.649 163.344C23.086 163.257 23.92 163.186 25.153 163.136C26.378 163.09 27.261 162.957 27.795 162.749C27.945 162.215 28.024 161.774 28.024 161.419C28.024 160.965 27.857 160.607 27.524 160.349C27.07 159.986 26.407 159.807 25.532 159.807C24.711 159.807 24.04 159.99 23.52 160.353C22.995 160.719 22.615 161.236 22.378 161.903L20.399 161.732C20.803 160.59 21.44 159.719 22.315 159.115C23.195 158.507 24.299 158.207 25.632 158.207C27.053 158.207 28.178 158.544 29.007 159.224C29.64 159.728 29.957 160.386 29.957 161.19C29.957 161.803 29.87 162.515 29.686 163.319L29.049 166.178C28.849 167.086 28.745 167.824 28.745 168.394C28.745 168.753 28.824 169.274 28.986 169.949H27.007C26.899 169.578 26.82 169.099 26.778 168.524Z" fill="#78B8BD"/>
<path d="M36.347 168.359L36.022 169.959C35.555 170.084 35.101 170.147 34.659 170.147C33.88 170.147 33.259 169.955 32.801 169.572C32.455 169.284 32.28 168.889 32.28 168.393C32.28 168.143 32.376 167.559 32.563 166.651L33.959 159.98H32.409L32.726 158.464H34.272L34.863 155.643L37.105 154.293L36.23 158.464H38.155L37.83 159.98H35.913L34.584 166.326C34.417 167.134 34.334 167.618 34.334 167.776C34.334 168.009 34.405 168.184 34.538 168.305C34.672 168.43 34.888 168.489 35.188 168.489C35.622 168.489 36.009 168.447 36.347 168.359Z" fill="#78B8BD"/>
<path d="M41.116 163.202H47.562C47.57 163.002 47.575 162.857 47.575 162.769C47.575 161.79 47.329 161.036 46.837 160.515C46.345 159.99 45.716 159.732 44.945 159.732C44.108 159.732 43.345 160.019 42.658 160.598C41.966 161.173 41.454 162.04 41.116 163.202ZM46.804 166.048L48.708 166.24C48.433 167.186 47.804 168.082 46.82 168.932C45.837 169.786 44.666 170.211 43.3 170.211C42.45 170.211 41.67 170.015 40.958 169.623C40.25 169.227 39.708 168.657 39.337 167.907C38.966 167.157 38.779 166.302 38.779 165.344C38.779 164.09 39.07 162.873 39.65 161.694C40.229 160.515 40.983 159.64 41.904 159.065C42.829 158.494 43.829 158.207 44.904 158.207C46.27 158.207 47.366 158.632 48.183 159.482C49.004 160.336 49.412 161.494 49.412 162.965C49.412 163.527 49.362 164.102 49.262 164.694H40.804C40.775 164.919 40.762 165.119 40.762 165.298C40.762 166.373 41.008 167.194 41.5 167.761C41.995 168.327 42.6 168.611 43.312 168.611C43.983 168.611 44.641 168.39 45.291 167.952C45.941 167.511 46.445 166.877 46.804 166.048Z" fill="#78B8BD"/>
<path d="M51.109 169.951L53.509 158.467H55.242L54.755 160.813C55.342 159.926 55.922 159.272 56.488 158.842C57.055 158.417 57.634 158.205 58.226 158.205C58.613 158.205 59.092 158.347 59.663 158.626L58.863 160.447C58.526 160.201 58.155 160.076 57.751 160.076C57.063 160.076 56.359 160.459 55.642 161.222C54.917 161.988 54.355 163.359 53.942 165.347L52.967 169.951H51.109Z" fill="#78B8BD"/>
<path d="M58.797 165.192L59.21 163.234H65.177L64.777 165.192H58.797Z" fill="#78B8BD"/>
<path d="M69.081 156.313L69.547 154.097H71.481L71.018 156.313H69.081ZM62.885 174.267L63.231 172.601C63.677 172.722 64.072 172.784 64.422 172.784C64.839 172.784 65.172 172.642 65.418 172.367C65.668 172.092 65.927 171.322 66.193 170.059L68.606 158.467H70.564L68.077 170.417C67.764 171.909 67.41 172.926 67.006 173.463C66.464 174.188 65.71 174.547 64.743 174.547C64.231 174.547 63.614 174.455 62.885 174.267Z" fill="#78B8BD"/>
<path d="M74.39 163.202H80.836C80.844 163.002 80.848 162.857 80.848 162.769C80.848 161.79 80.602 161.036 80.111 160.515C79.619 159.99 78.99 159.732 78.219 159.732C77.382 159.732 76.619 160.019 75.932 160.598C75.24 161.173 74.727 162.04 74.39 163.202ZM80.077 166.048L81.982 166.24C81.707 167.186 81.077 168.082 80.094 168.932C79.111 169.786 77.94 170.211 76.573 170.211C75.723 170.211 74.944 170.015 74.232 169.623C73.523 169.227 72.982 168.657 72.611 167.907C72.24 167.157 72.052 166.302 72.052 165.344C72.052 164.09 72.344 162.873 72.923 161.694C73.502 160.515 74.257 159.64 75.177 159.065C76.102 158.494 77.102 158.207 78.177 158.207C79.544 158.207 80.64 158.632 81.457 159.482C82.277 160.336 82.686 161.494 82.686 162.965C82.686 163.527 82.636 164.102 82.536 164.694H74.077C74.048 164.919 74.036 165.119 74.036 165.298C74.036 166.373 74.282 167.194 74.773 167.761C75.269 168.327 75.873 168.611 76.586 168.611C77.257 168.611 77.915 168.39 78.565 167.952C79.215 167.511 79.719 166.877 80.077 166.048Z" fill="#78B8BD"/>
<path d="M88.957 168.359L88.632 169.959C88.165 170.084 87.711 170.147 87.27 170.147C86.49 170.147 85.87 169.955 85.411 169.572C85.065 169.284 84.89 168.889 84.89 168.393C84.89 168.143 84.986 167.559 85.174 166.651L86.57 159.98H85.02L85.336 158.464H86.882L87.474 155.643L89.715 154.293L88.84 158.464H90.765L90.44 159.98H88.524L87.195 166.326C87.028 167.134 86.945 167.618 86.945 167.776C86.945 168.009 87.015 168.184 87.149 168.305C87.282 168.43 87.499 168.489 87.799 168.489C88.232 168.489 88.62 168.447 88.957 168.359Z" fill="#78B8BD"/>
<path d="M111.032 161.192H113.961C115.319 161.192 116.202 161.175 116.611 161.138C117.411 161.059 118.069 160.875 118.582 160.596C119.094 160.317 119.49 159.938 119.769 159.459C120.052 158.984 120.19 158.475 120.19 157.925C120.19 157.463 120.086 157.063 119.877 156.721C119.669 156.375 119.394 156.146 119.057 156.021C118.715 155.9 118.14 155.838 117.327 155.838H112.157L111.032 161.192ZM107.086 169.95L110.402 154.096H117.057C118.369 154.096 119.361 154.204 120.04 154.425C120.719 154.646 121.248 155.059 121.636 155.663C122.023 156.271 122.215 157.034 122.215 157.959C122.215 159.25 121.794 160.321 120.948 161.171C120.107 162.021 118.74 162.571 116.861 162.825C117.436 163.25 117.873 163.667 118.169 164.079C118.832 165.009 119.365 165.971 119.769 166.967L120.982 169.95H118.611L117.477 167C117.065 165.929 116.598 165.009 116.069 164.229C115.711 163.688 115.344 163.334 114.969 163.163C114.594 162.996 113.986 162.913 113.14 162.913H110.677L109.202 169.95H107.086Z" fill="#78B8BD"/>
<path d="M125.944 163.202H132.39C132.398 163.002 132.402 162.857 132.402 162.769C132.402 161.79 132.157 161.036 131.665 160.515C131.173 159.99 130.544 159.732 129.773 159.732C128.936 159.732 128.173 160.019 127.486 160.598C126.794 161.173 126.282 162.04 125.944 163.202ZM131.632 166.048L133.536 166.24C133.261 167.186 132.632 168.082 131.648 168.932C130.665 169.786 129.494 170.211 128.127 170.211C127.277 170.211 126.498 170.015 125.786 169.623C125.077 169.227 124.536 168.657 124.165 167.907C123.794 167.157 123.607 166.302 123.607 165.344C123.607 164.09 123.898 162.873 124.477 161.694C125.057 160.515 125.811 159.64 126.732 159.065C127.657 158.494 128.657 158.207 129.732 158.207C131.098 158.207 132.194 158.632 133.011 159.482C133.832 160.336 134.24 161.494 134.24 162.965C134.24 163.527 134.19 164.102 134.09 164.694H125.632C125.602 164.919 125.59 165.119 125.59 165.298C125.59 166.373 125.836 167.194 126.327 167.761C126.823 168.327 127.427 168.611 128.14 168.611C128.811 168.611 129.469 168.39 130.119 167.952C130.769 167.511 131.273 166.877 131.632 166.048Z" fill="#78B8BD"/>
<path d="M136.121 166.024L138.08 165.907C138.08 166.466 138.163 166.949 138.338 167.345C138.509 167.741 138.83 168.066 139.296 168.316C139.759 168.57 140.3 168.699 140.921 168.699C141.788 168.699 142.438 168.524 142.871 168.178C143.3 167.832 143.517 167.424 143.517 166.957C143.517 166.616 143.388 166.295 143.13 165.995C142.863 165.691 142.213 165.316 141.18 164.874C140.142 164.428 139.48 164.116 139.192 163.941C138.709 163.641 138.346 163.295 138.1 162.895C137.855 162.495 137.734 162.032 137.734 161.516C137.734 160.607 138.092 159.828 138.813 159.178C139.534 158.532 140.546 158.207 141.842 158.207C143.284 158.207 144.38 158.541 145.134 159.207C145.888 159.874 146.28 160.753 146.309 161.841L144.396 161.97C144.363 161.278 144.121 160.728 143.659 160.324C143.196 159.924 142.546 159.72 141.7 159.72C141.025 159.72 140.496 159.874 140.121 160.187C139.746 160.495 139.559 160.828 139.559 161.191C139.559 161.553 139.721 161.866 140.046 162.141C140.263 162.328 140.821 162.62 141.721 163.007C143.221 163.657 144.167 164.17 144.559 164.545C145.175 165.145 145.488 165.87 145.488 166.728C145.488 167.299 145.313 167.857 144.963 168.403C144.613 168.953 144.08 169.391 143.359 169.72C142.642 170.045 141.8 170.212 140.825 170.212C139.5 170.212 138.371 169.882 137.442 169.228C136.513 168.57 136.071 167.503 136.121 166.024Z" fill="#78B8BD"/>
<path d="M147.432 169.951L150.74 154.097H152.698L151.432 160.184C152.161 159.48 152.84 158.972 153.465 158.667C154.094 158.359 154.74 158.205 155.402 158.205C156.352 158.205 157.094 158.459 157.619 158.959C158.144 159.459 158.407 160.122 158.407 160.942C158.407 161.347 158.294 162.088 158.061 163.172L156.644 169.951H154.69L156.148 162.997C156.357 161.988 156.461 161.355 156.461 161.092C156.461 160.717 156.332 160.413 156.073 160.176C155.815 159.938 155.436 159.817 154.948 159.817C154.24 159.817 153.565 160.005 152.923 160.376C152.286 160.747 151.782 161.255 151.415 161.901C151.052 162.547 150.719 163.584 150.415 165.017L149.39 169.951H147.432Z" fill="#78B8BD"/>
<path d="M168.639 164.132C168.364 164.24 168.072 164.324 167.76 164.382C167.443 164.44 166.918 164.499 166.185 164.565C165.047 164.665 164.239 164.794 163.772 164.949C163.306 165.103 162.952 165.349 162.714 165.69C162.472 166.028 162.356 166.403 162.356 166.815C162.356 167.361 162.543 167.811 162.922 168.165C163.302 168.519 163.839 168.699 164.539 168.699C165.189 168.699 165.814 168.524 166.41 168.182C167.01 167.84 167.481 167.361 167.827 166.749C168.172 166.136 168.443 165.265 168.639 164.132ZM167.914 168.524C167.239 169.107 166.585 169.532 165.956 169.803C165.331 170.074 164.66 170.211 163.947 170.211C162.885 170.211 162.031 169.899 161.381 169.274C160.735 168.653 160.41 167.853 160.41 166.878C160.41 166.236 160.556 165.669 160.847 165.174C161.139 164.682 161.527 164.286 162.01 163.986C162.493 163.686 163.085 163.474 163.785 163.344C164.222 163.257 165.056 163.186 166.289 163.136C167.514 163.09 168.397 162.957 168.931 162.749C169.081 162.215 169.16 161.774 169.16 161.419C169.16 160.965 168.993 160.607 168.66 160.349C168.206 159.986 167.543 159.807 166.668 159.807C165.847 159.807 165.177 159.99 164.656 160.353C164.131 160.719 163.752 161.236 163.514 161.903L161.535 161.732C161.939 160.59 162.577 159.719 163.452 159.115C164.331 158.507 165.435 158.207 166.768 158.207C168.189 158.207 169.314 158.544 170.143 159.224C170.777 159.728 171.093 160.386 171.093 161.19C171.093 161.803 171.006 162.515 170.822 163.319L170.185 166.178C169.985 167.086 169.881 167.824 169.881 168.394C169.881 168.753 169.96 169.274 170.122 169.949H168.143C168.035 169.578 167.956 169.099 167.914 168.524Z" fill="#78B8BD"/>
<path d="M175.818 165.257C175.818 166.115 175.88 166.711 176.001 167.04C176.18 167.511 176.476 167.89 176.889 168.178C177.301 168.465 177.776 168.611 178.318 168.611C179.443 168.611 180.351 167.978 181.043 166.711C181.735 165.444 182.08 164.153 182.08 162.832C182.08 161.861 181.847 161.111 181.38 160.578C180.918 160.049 180.339 159.786 179.647 159.786C179.147 159.786 178.689 159.915 178.264 160.178C177.839 160.444 177.443 160.836 177.076 161.357C176.714 161.882 176.414 162.519 176.176 163.278C175.939 164.036 175.818 164.694 175.818 165.257ZM171.947 174.353L175.268 158.465H177.072L176.739 160.065C177.405 159.365 178.01 158.882 178.539 158.611C179.068 158.34 179.63 158.207 180.218 158.207C181.318 158.207 182.222 158.603 182.943 159.403C183.668 160.199 184.026 161.34 184.026 162.824C184.026 164.019 183.83 165.111 183.43 166.094C183.035 167.078 182.547 167.869 181.972 168.469C181.397 169.069 180.81 169.507 180.218 169.786C179.63 170.069 179.022 170.211 178.401 170.211C177.026 170.211 175.96 169.511 175.201 168.115L173.905 174.353H171.947Z" fill="#78B8BD"/>
<path d="M188.427 156.313L188.894 154.097H190.84L190.373 156.313H188.427ZM185.573 169.951L187.973 158.467H189.932L187.532 169.951H185.573Z" fill="#78B8BD"/>
<path d="M190.99 169.951L193.39 158.467H195.165L194.745 160.467C195.515 159.68 196.236 159.105 196.907 158.747C197.578 158.388 198.261 158.205 198.961 158.205C199.89 158.205 200.62 158.459 201.149 158.963C201.682 159.467 201.945 160.142 201.945 160.984C201.945 161.413 201.853 162.08 201.665 162.997L200.203 169.951H198.249L199.774 162.672C199.924 161.967 199.999 161.442 199.999 161.105C199.999 160.722 199.865 160.413 199.603 160.176C199.34 159.938 198.961 159.817 198.461 159.817C197.461 159.817 196.57 160.18 195.786 160.901C195.003 161.617 194.428 162.855 194.061 164.609L192.949 169.951H190.99Z" fill="#78B8BD"/>
<path d="M206.063 164.869C206.063 165.652 206.138 166.248 206.292 166.639C206.509 167.198 206.817 167.619 207.217 167.91C207.617 168.206 208.059 168.352 208.551 168.352C209.192 168.352 209.83 168.127 210.463 167.673C211.101 167.223 211.613 166.527 212.009 165.581C212.401 164.635 212.597 163.735 212.597 162.877C212.597 161.931 212.334 161.181 211.813 160.623C211.288 160.064 210.642 159.785 209.872 159.785C209.397 159.785 208.934 159.914 208.484 160.169C208.038 160.427 207.626 160.814 207.238 161.335C206.851 161.86 206.559 162.485 206.363 163.214C206.163 163.939 206.063 164.494 206.063 164.869ZM203.622 170.989L205.601 171.173C205.584 171.619 205.638 171.956 205.763 172.177C205.884 172.402 206.08 172.577 206.347 172.698C206.697 172.856 207.155 172.935 207.717 172.935C208.901 172.935 209.751 172.631 210.272 172.019C210.609 171.606 210.926 170.71 211.213 169.335L211.405 168.406C210.388 169.435 209.309 169.952 208.163 169.952C207.001 169.952 206.03 169.523 205.247 168.669C204.467 167.814 204.076 166.606 204.076 165.044C204.076 163.752 204.384 162.564 205.001 161.485C205.613 160.402 206.347 159.585 207.201 159.035C208.051 158.481 208.926 158.206 209.826 158.206C211.334 158.206 212.497 158.919 213.309 160.348L213.701 158.464H215.492L213.18 169.552C212.93 170.769 212.597 171.719 212.184 172.402C211.776 173.081 211.201 173.61 210.472 173.985C209.738 174.36 208.892 174.548 207.934 174.548C207.013 174.548 206.217 174.427 205.551 174.189C204.884 173.952 204.388 173.606 204.059 173.148C203.73 172.689 203.567 172.164 203.567 171.573C203.567 171.394 203.584 171.198 203.622 170.989Z" fill="#78B8BD"/>
<path d="M227.315 160.867H230.527C232.06 160.867 233.169 160.621 233.844 160.129C234.515 159.642 234.852 158.929 234.852 157.992C234.852 157.542 234.748 157.158 234.54 156.833C234.331 156.508 234.048 156.271 233.702 156.125C233.352 155.979 232.694 155.904 231.727 155.904H228.352L227.315 160.867ZM225.79 168.158H229.402C230.36 168.158 231.006 168.125 231.34 168.058C232.006 167.942 232.552 167.746 232.973 167.467C233.39 167.192 233.719 166.825 233.956 166.371C234.194 165.917 234.31 165.442 234.31 164.946C234.31 164.2 234.081 163.637 233.615 163.25C233.148 162.867 232.265 162.675 230.96 162.675H226.935L225.79 168.158ZM223.29 169.95L226.61 154.096H231.523C232.415 154.096 233.081 154.133 233.51 154.204C234.219 154.329 234.815 154.542 235.302 154.85C235.785 155.154 236.165 155.571 236.431 156.1C236.698 156.633 236.831 157.221 236.831 157.858C236.831 158.733 236.594 159.5 236.115 160.167C235.631 160.825 234.898 161.329 233.91 161.679C234.769 161.958 235.41 162.383 235.835 162.95C236.26 163.512 236.473 164.175 236.473 164.933C236.473 165.808 236.223 166.642 235.723 167.442C235.223 168.242 234.56 168.858 233.731 169.296C232.906 169.733 231.985 169.95 230.969 169.95H223.29Z" fill="#78B8BD"/>
<path d="M240.582 165.397C240.582 166.481 240.84 167.302 241.361 167.856C241.878 168.418 242.54 168.697 243.34 168.697C243.757 168.697 244.174 168.61 244.582 168.443C244.995 168.272 245.378 168.014 245.728 167.668C246.082 167.322 246.382 166.927 246.632 166.485C246.882 166.043 247.082 165.564 247.232 165.052C247.457 164.339 247.57 163.656 247.57 162.997C247.57 161.96 247.307 161.152 246.782 160.581C246.261 160.006 245.603 159.718 244.811 159.718C244.199 159.718 243.64 159.864 243.136 160.16C242.632 160.452 242.174 160.877 241.765 161.439C241.361 162.002 241.061 162.656 240.87 163.402C240.678 164.147 240.582 164.814 240.582 165.397ZM238.624 165.593C238.624 163.352 239.286 161.493 240.603 160.022C241.69 158.81 243.12 158.206 244.886 158.206C246.27 158.206 247.386 158.639 248.232 159.502C249.082 160.368 249.507 161.539 249.507 163.01C249.507 164.327 249.236 165.556 248.703 166.693C248.17 167.827 247.411 168.697 246.428 169.302C245.445 169.91 244.407 170.21 243.32 170.21C242.424 170.21 241.611 170.018 240.882 169.639C240.149 169.256 239.59 168.714 239.203 168.014C238.815 167.314 238.624 166.51 238.624 165.593Z" fill="#78B8BD"/>
<path d="M253.397 165.139C253.397 165.939 253.477 166.568 253.635 167.031C253.793 167.493 254.064 167.877 254.447 168.181C254.827 168.489 255.289 168.643 255.818 168.643C256.706 168.643 257.51 168.181 258.231 167.26C259.197 166.031 259.681 164.518 259.681 162.714C259.681 161.81 259.443 161.097 258.968 160.585C258.489 160.072 257.893 159.818 257.172 159.818C256.702 159.818 256.277 159.922 255.889 160.131C255.506 160.339 255.122 160.697 254.743 161.197C254.364 161.697 254.047 162.335 253.789 163.106C253.527 163.877 253.397 164.556 253.397 165.139ZM258.76 168.285C257.643 169.568 256.477 170.21 255.26 170.21C254.168 170.21 253.264 169.81 252.539 169.006C251.814 168.202 251.452 167.035 251.452 165.506C251.452 164.106 251.739 162.831 252.31 161.672C252.885 160.514 253.602 159.647 254.464 159.072C255.322 158.493 256.189 158.206 257.052 158.206C258.481 158.206 259.56 158.893 260.285 160.272L261.585 154.097H263.531L260.222 169.952H258.414L258.76 168.285Z" fill="#78B8BD"/>
<path d="M266.535 156.313L267.002 154.097H268.948L268.481 156.313H266.535ZM263.681 169.951L266.081 158.467H268.04L265.64 169.951H263.681Z" fill="#78B8BD"/>
<path d="M271.845 163.202H278.291C278.299 163.002 278.303 162.857 278.303 162.769C278.303 161.79 278.057 161.036 277.566 160.515C277.074 159.99 276.445 159.732 275.674 159.732C274.837 159.732 274.074 160.019 273.387 160.598C272.695 161.173 272.182 162.04 271.845 163.202ZM277.532 166.048L279.437 166.24C279.162 167.186 278.532 168.082 277.549 168.932C276.566 169.786 275.395 170.211 274.028 170.211C273.178 170.211 272.399 170.015 271.687 169.623C270.978 169.227 270.437 168.657 270.066 167.907C269.695 167.157 269.507 166.302 269.507 165.344C269.507 164.09 269.799 162.873 270.378 161.694C270.957 160.515 271.712 159.64 272.632 159.065C273.557 158.494 274.557 158.207 275.632 158.207C276.999 158.207 278.095 158.632 278.912 159.482C279.732 160.336 280.141 161.494 280.141 162.965C280.141 163.527 280.091 164.102 279.991 164.694H271.532C271.503 164.919 271.491 165.119 271.491 165.298C271.491 166.373 271.737 167.194 272.228 167.761C272.724 168.327 273.328 168.611 274.041 168.611C274.712 168.611 275.37 168.39 276.02 167.952C276.67 167.511 277.174 166.877 277.532 166.048Z" fill="#78B8BD"/>
<path d="M282.022 166.024L283.98 165.907C283.98 166.466 284.063 166.949 284.238 167.345C284.409 167.741 284.73 168.066 285.197 168.316C285.659 168.57 286.201 168.699 286.822 168.699C287.688 168.699 288.338 168.524 288.772 168.178C289.201 167.832 289.417 167.424 289.417 166.957C289.417 166.616 289.288 166.295 289.03 165.995C288.763 165.691 288.113 165.316 287.08 164.874C286.042 164.428 285.38 164.116 285.092 163.941C284.609 163.641 284.247 163.295 284.001 162.895C283.755 162.495 283.634 162.032 283.634 161.516C283.634 160.607 283.992 159.828 284.713 159.178C285.434 158.532 286.447 158.207 287.742 158.207C289.184 158.207 290.28 158.541 291.034 159.207C291.788 159.874 292.18 160.753 292.209 161.841L290.297 161.97C290.263 161.278 290.022 160.728 289.559 160.324C289.097 159.924 288.447 159.72 287.601 159.72C286.926 159.72 286.397 159.874 286.022 160.187C285.647 160.495 285.459 160.828 285.459 161.191C285.459 161.553 285.622 161.866 285.947 162.141C286.163 162.328 286.722 162.62 287.622 163.007C289.122 163.657 290.067 164.17 290.459 164.545C291.076 165.145 291.388 165.87 291.388 166.728C291.388 167.299 291.213 167.857 290.863 168.403C290.513 168.953 289.98 169.391 289.259 169.72C288.542 170.045 287.701 170.212 286.726 170.212C285.401 170.212 284.272 169.882 283.342 169.228C282.413 168.57 281.972 167.503 282.022 166.024Z" fill="#78B8BD"/>
<path d="M302.827 165.234L302.815 165.601C302.815 166.584 303.048 167.33 303.519 167.839C303.99 168.355 304.573 168.609 305.269 168.609C305.957 168.609 306.586 168.368 307.157 167.893C307.732 167.409 308.202 166.664 308.569 165.647C308.936 164.63 309.119 163.693 309.119 162.834C309.119 161.868 308.89 161.118 308.423 160.584C307.957 160.051 307.386 159.784 306.698 159.784C305.994 159.784 305.344 160.055 304.752 160.601C304.161 161.147 303.669 161.984 303.269 163.118C302.973 163.959 302.827 164.664 302.827 165.234ZM299.927 169.951L303.236 154.097H305.194L304.015 159.764C304.636 159.193 305.198 158.793 305.702 158.555C306.207 158.322 306.736 158.205 307.282 158.205C308.357 158.205 309.252 158.605 309.969 159.405C310.686 160.205 311.044 161.372 311.044 162.897C311.044 163.918 310.902 164.847 310.615 165.689C310.323 166.534 309.969 167.243 309.544 167.814C309.119 168.389 308.677 168.847 308.223 169.189C307.769 169.53 307.307 169.789 306.827 169.955C306.352 170.126 305.894 170.209 305.452 170.209C304.698 170.209 304.032 170.009 303.457 169.609C302.877 169.209 302.427 168.601 302.102 167.776L301.648 169.951H299.927Z" fill="#78B8BD"/>
<path d="M311.931 174.384L312.052 172.546C312.456 172.659 312.848 172.721 313.227 172.721C313.627 172.721 313.944 172.629 314.194 172.45C314.51 172.213 314.856 171.763 315.231 171.109L315.856 169.984L313.944 158.467H315.869L316.731 164.275C316.906 165.421 317.052 166.567 317.177 167.713L322.315 158.467H324.356L317.035 171.475C316.331 172.742 315.702 173.584 315.152 173.996C314.606 174.404 313.977 174.613 313.26 174.613C312.806 174.613 312.365 174.538 311.931 174.384Z" fill="#78B8BD"/>
<path d="M335.01 161.192H337.939C339.297 161.192 340.181 161.175 340.589 161.138C341.389 161.059 342.047 160.875 342.56 160.596C343.072 160.317 343.468 159.938 343.747 159.459C344.031 158.984 344.168 158.475 344.168 157.925C344.168 157.463 344.064 157.063 343.856 156.721C343.647 156.375 343.372 156.146 343.035 156.021C342.693 155.9 342.118 155.838 341.306 155.838H336.135L335.01 161.192ZM331.06 169.95L334.381 154.096H341.035C342.347 154.096 343.339 154.204 344.018 154.425C344.697 154.646 345.227 155.059 345.614 155.663C346.002 156.271 346.193 157.034 346.193 157.959C346.193 159.25 345.772 160.321 344.927 161.171C344.085 162.021 342.718 162.571 340.839 162.825C341.414 163.25 341.852 163.667 342.147 164.079C342.81 165.009 343.343 165.971 343.747 166.967L344.96 169.95H342.589L341.456 167C341.043 165.929 340.577 165.009 340.047 164.229C339.689 163.688 339.322 163.334 338.947 163.163C338.572 162.996 337.964 162.913 337.118 162.913H334.656L333.181 169.95H331.06Z" fill="#78B8BD"/>
<path d="M349.921 163.202H356.367C356.375 163.002 356.379 162.857 356.379 162.769C356.379 161.79 356.133 161.036 355.642 160.515C355.15 159.99 354.521 159.732 353.75 159.732C352.912 159.732 352.15 160.019 351.462 160.598C350.771 161.173 350.258 162.04 349.921 163.202ZM355.608 166.048L357.512 166.24C357.237 167.186 356.608 168.082 355.625 168.932C354.642 169.786 353.471 170.211 352.104 170.211C351.254 170.211 350.475 170.015 349.762 169.623C349.054 169.227 348.512 168.657 348.142 167.907C347.771 167.157 347.583 166.302 347.583 165.344C347.583 164.09 347.875 162.873 348.454 161.694C349.033 160.515 349.787 159.64 350.708 159.065C351.633 158.494 352.633 158.207 353.708 158.207C355.075 158.207 356.171 158.632 356.987 159.482C357.808 160.336 358.217 161.494 358.217 162.965C358.217 163.527 358.167 164.102 358.067 164.694H349.608C349.579 164.919 349.567 165.119 349.567 165.298C349.567 166.373 349.812 167.194 350.304 167.761C350.8 168.327 351.404 168.611 352.117 168.611C352.787 168.611 353.446 168.39 354.096 167.952C354.746 167.511 355.25 166.877 355.608 166.048Z" fill="#78B8BD"/>
<path d="M360.097 166.024L362.056 165.907C362.056 166.466 362.139 166.949 362.314 167.345C362.485 167.741 362.806 168.066 363.272 168.316C363.735 168.57 364.277 168.699 364.897 168.699C365.764 168.699 366.414 168.524 366.847 168.178C367.277 167.832 367.493 167.424 367.493 166.957C367.493 166.616 367.364 166.295 367.106 165.995C366.839 165.691 366.189 165.316 365.156 164.874C364.118 164.428 363.456 164.116 363.168 163.941C362.685 163.641 362.322 163.295 362.077 162.895C361.831 162.495 361.71 162.032 361.71 161.516C361.71 160.607 362.068 159.828 362.789 159.178C363.51 158.532 364.522 158.207 365.818 158.207C367.26 158.207 368.356 158.541 369.11 159.207C369.864 159.874 370.256 160.753 370.285 161.841L368.372 161.97C368.339 161.278 368.097 160.728 367.635 160.324C367.172 159.924 366.522 159.72 365.677 159.72C365.002 159.72 364.472 159.874 364.097 160.187C363.722 160.495 363.535 160.828 363.535 161.191C363.535 161.553 363.697 161.866 364.022 162.141C364.239 162.328 364.797 162.62 365.697 163.007C367.197 163.657 368.143 164.17 368.535 164.545C369.152 165.145 369.464 165.87 369.464 166.728C369.464 167.299 369.289 167.857 368.939 168.403C368.589 168.953 368.056 169.391 367.335 169.72C366.618 170.045 365.777 170.212 364.802 170.212C363.477 170.212 362.347 169.882 361.418 169.228C360.489 168.57 360.047 167.503 360.097 166.024Z" fill="#78B8BD"/>
<path d="M371.408 169.951L374.717 154.097H376.675L375.408 160.184C376.137 159.48 376.817 158.972 377.442 158.667C378.071 158.359 378.717 158.205 379.379 158.205C380.329 158.205 381.071 158.459 381.596 158.959C382.121 159.459 382.383 160.122 382.383 160.942C382.383 161.347 382.271 162.088 382.037 163.172L380.621 169.951H378.667L380.125 162.997C380.333 161.988 380.437 161.355 380.437 161.092C380.437 160.717 380.308 160.413 380.05 160.176C379.792 159.938 379.412 159.817 378.925 159.817C378.217 159.817 377.542 160.005 376.9 160.376C376.262 160.747 375.758 161.255 375.392 161.901C375.029 162.547 374.696 163.584 374.392 165.017L373.367 169.951H371.408Z" fill="#78B8BD"/>
<path d="M392.616 164.132C392.341 164.24 392.049 164.324 391.737 164.382C391.42 164.44 390.895 164.499 390.162 164.565C389.024 164.665 388.216 164.794 387.749 164.949C387.282 165.103 386.928 165.349 386.691 165.69C386.449 166.028 386.332 166.403 386.332 166.815C386.332 167.361 386.52 167.811 386.899 168.165C387.278 168.519 387.816 168.699 388.516 168.699C389.166 168.699 389.791 168.524 390.387 168.182C390.987 167.84 391.457 167.361 391.803 166.749C392.149 166.136 392.42 165.265 392.616 164.132ZM391.891 168.524C391.216 169.107 390.562 169.532 389.932 169.803C389.307 170.074 388.637 170.211 387.924 170.211C386.862 170.211 386.007 169.899 385.357 169.274C384.712 168.653 384.387 167.853 384.387 166.878C384.387 166.236 384.532 165.669 384.824 165.174C385.116 164.682 385.503 164.286 385.987 163.986C386.47 163.686 387.062 163.474 387.762 163.344C388.199 163.257 389.032 163.186 390.266 163.136C391.491 163.09 392.374 162.957 392.907 162.749C393.057 162.215 393.137 161.774 393.137 161.419C393.137 160.965 392.97 160.607 392.637 160.349C392.182 159.986 391.52 159.807 390.645 159.807C389.824 159.807 389.153 159.99 388.632 160.353C388.107 160.719 387.728 161.236 387.491 161.903L385.512 161.732C385.916 160.59 386.553 159.719 387.428 159.115C388.307 158.507 389.412 158.207 390.745 158.207C392.166 158.207 393.291 158.544 394.12 159.224C394.753 159.728 395.07 160.386 395.07 161.19C395.07 161.803 394.982 162.515 394.799 163.319L394.162 166.178C393.962 167.086 393.857 167.824 393.857 168.394C393.857 168.753 393.937 169.274 394.099 169.949H392.12C392.012 169.578 391.932 169.099 391.891 168.524Z" fill="#78B8BD"/>
<path d="M399.795 165.257C399.795 166.115 399.857 166.711 399.978 167.04C400.157 167.511 400.453 167.89 400.865 168.178C401.278 168.465 401.753 168.611 402.295 168.611C403.42 168.611 404.328 167.978 405.02 166.711C405.711 165.444 406.057 164.153 406.057 162.832C406.057 161.861 405.824 161.111 405.357 160.578C404.895 160.049 404.315 159.786 403.624 159.786C403.124 159.786 402.665 159.915 402.24 160.178C401.815 160.444 401.42 160.836 401.053 161.357C400.69 161.882 400.39 162.519 400.153 163.278C399.915 164.036 399.795 164.694 399.795 165.257ZM395.924 174.353L399.245 158.465H401.049L400.715 160.065C401.382 159.365 401.986 158.882 402.515 158.611C403.045 158.34 403.607 158.207 404.195 158.207C405.295 158.207 406.199 158.603 406.92 159.403C407.645 160.199 408.003 161.34 408.003 162.824C408.003 164.019 407.807 165.111 407.407 166.094C407.011 167.078 406.524 167.869 405.949 168.469C405.374 169.069 404.786 169.507 404.195 169.786C403.607 170.069 402.999 170.211 402.378 170.211C401.003 170.211 399.936 169.511 399.178 168.115L397.882 174.353H395.924Z" fill="#78B8BD"/>
<path d="M412.404 156.313L412.871 154.097H414.817L414.35 156.313H412.404ZM409.55 169.951L411.95 158.467H413.908L411.508 169.951H409.55Z" fill="#78B8BD"/>
<path d="M414.967 169.951L417.367 158.467H419.142L418.721 160.467C419.492 159.68 420.213 159.105 420.884 158.747C421.555 158.388 422.238 158.205 422.938 158.205C423.867 158.205 424.596 158.459 425.125 158.963C425.659 159.467 425.921 160.142 425.921 160.984C425.921 161.413 425.83 162.08 425.642 162.997L424.18 169.951H422.225L423.75 162.672C423.9 161.967 423.975 161.442 423.975 161.105C423.975 160.722 423.842 160.413 423.58 160.176C423.317 159.938 422.938 159.817 422.438 159.817C421.438 159.817 420.546 160.18 419.763 160.901C418.98 161.617 418.405 162.855 418.038 164.609L416.925 169.951H414.967Z" fill="#78B8BD"/>
<path d="M430.04 164.869C430.04 165.652 430.115 166.248 430.269 166.639C430.486 167.198 430.794 167.619 431.194 167.91C431.594 168.206 432.036 168.352 432.527 168.352C433.169 168.352 433.807 168.127 434.44 167.673C435.077 167.223 435.59 166.527 435.986 165.581C436.377 164.635 436.573 163.735 436.573 162.877C436.573 161.931 436.311 161.181 435.79 160.623C435.265 160.064 434.619 159.785 433.848 159.785C433.373 159.785 432.911 159.914 432.461 160.169C432.015 160.427 431.602 160.814 431.215 161.335C430.827 161.86 430.536 162.485 430.34 163.214C430.14 163.939 430.04 164.494 430.04 164.869ZM427.598 170.989L429.577 171.173C429.561 171.619 429.615 171.956 429.74 172.177C429.861 172.402 430.057 172.577 430.323 172.698C430.673 172.856 431.132 172.935 431.694 172.935C432.877 172.935 433.727 172.631 434.248 172.019C434.586 171.606 434.902 170.71 435.19 169.335L435.382 168.406C434.365 169.435 433.286 169.952 432.14 169.952C430.977 169.952 430.007 169.523 429.223 168.669C428.444 167.814 428.052 166.606 428.052 165.044C428.052 163.752 428.361 162.564 428.977 161.485C429.59 160.402 430.323 159.585 431.177 159.035C432.027 158.481 432.902 158.206 433.802 158.206C435.311 158.206 436.473 158.919 437.286 160.348L437.677 158.464H439.469L437.157 169.552C436.907 170.769 436.573 171.719 436.161 172.402C435.752 173.081 435.177 173.61 434.448 173.985C433.715 174.36 432.869 174.548 431.911 174.548C430.99 174.548 430.194 174.427 429.527 174.189C428.861 173.952 428.365 173.606 428.036 173.148C427.707 172.689 427.544 172.164 427.544 171.573C427.544 171.394 427.561 171.198 427.598 170.989Z" fill="#78B8BD"/>
<path d="M451.335 169.951L454.264 155.901H449.064L449.443 154.097H461.922L461.543 155.901H456.385L453.456 169.951H451.335Z" fill="#78B8BD"/>
<path d="M461.745 163.202H468.19C468.199 163.002 468.203 162.857 468.203 162.769C468.203 161.79 467.957 161.036 467.465 160.515C466.974 159.99 466.345 159.732 465.574 159.732C464.736 159.732 463.974 160.019 463.286 160.598C462.595 161.173 462.082 162.04 461.745 163.202ZM467.432 166.048L469.336 166.24C469.061 167.186 468.432 168.082 467.449 168.932C466.465 169.786 465.295 170.211 463.928 170.211C463.078 170.211 462.299 170.015 461.586 169.623C460.878 169.227 460.336 168.657 459.965 167.907C459.595 167.157 459.407 166.302 459.407 165.344C459.407 164.09 459.699 162.873 460.278 161.694C460.857 160.515 461.611 159.64 462.532 159.065C463.457 158.494 464.457 158.207 465.532 158.207C466.899 158.207 467.995 158.632 468.811 159.482C469.632 160.336 470.04 161.494 470.04 162.965C470.04 163.527 469.99 164.102 469.89 164.694H461.432C461.403 164.919 461.39 165.119 461.39 165.298C461.39 166.373 461.636 167.194 462.128 167.761C462.624 168.327 463.228 168.611 463.94 168.611C464.611 168.611 465.27 168.39 465.92 167.952C466.57 167.511 467.074 166.877 467.432 166.048Z" fill="#78B8BD"/>
<path d="M479.662 165.766L481.62 165.97C481.129 167.407 480.433 168.47 479.529 169.166C478.625 169.862 477.595 170.212 476.441 170.212C475.191 170.212 474.183 169.807 473.408 168.999C472.633 168.195 472.245 167.066 472.245 165.612C472.245 164.362 472.495 163.128 472.991 161.916C473.487 160.703 474.2 159.782 475.125 159.153C476.054 158.52 477.112 158.207 478.3 158.207C479.533 158.207 480.512 158.553 481.233 159.249C481.95 159.945 482.312 160.866 482.312 162.012L480.387 162.141C480.379 161.416 480.17 160.845 479.754 160.432C479.341 160.024 478.791 159.82 478.116 159.82C477.329 159.82 476.65 160.066 476.07 160.562C475.495 161.062 475.041 161.816 474.716 162.828C474.387 163.845 474.225 164.816 474.225 165.757C474.225 166.732 474.437 167.47 474.87 167.962C475.304 168.453 475.837 168.699 476.47 168.699C477.108 168.699 477.716 168.457 478.295 167.97C478.875 167.491 479.333 166.753 479.662 165.766Z" fill="#78B8BD"/>
<path d="M483.254 169.951L486.562 154.097H488.521L487.254 160.184C487.983 159.48 488.662 158.972 489.287 158.667C489.917 158.359 490.562 158.205 491.225 158.205C492.175 158.205 492.917 158.459 493.442 158.959C493.967 159.459 494.229 160.122 494.229 160.942C494.229 161.347 494.117 162.088 493.883 163.172L492.467 169.951H490.512L491.971 162.997C492.179 161.988 492.283 161.355 492.283 161.092C492.283 160.717 492.154 160.413 491.896 160.176C491.637 159.938 491.258 159.817 490.771 159.817C490.062 159.817 489.387 160.005 488.746 160.376C488.108 160.747 487.604 161.255 487.237 161.901C486.875 162.547 486.542 163.584 486.237 165.017L485.212 169.951H483.254Z" fill="#78B8BD"/>
<path d="M495.992 169.951L498.392 158.467H500.167L499.746 160.467C500.517 159.68 501.238 159.105 501.909 158.747C502.58 158.388 503.263 158.205 503.963 158.205C504.892 158.205 505.621 158.459 506.15 158.963C506.684 159.467 506.946 160.142 506.946 160.984C506.946 161.413 506.855 162.08 506.667 162.997L505.205 169.951H503.25L504.775 162.672C504.925 161.967 505 161.442 505 161.105C505 160.722 504.867 160.413 504.605 160.176C504.342 159.938 503.963 159.817 503.463 159.817C502.463 159.817 501.571 160.18 500.788 160.901C500.005 161.617 499.43 162.855 499.063 164.609L497.95 169.951H495.992Z" fill="#78B8BD"/>
<path d="M511.035 165.397C511.035 166.481 511.293 167.302 511.814 167.856C512.33 168.418 512.993 168.697 513.793 168.697C514.21 168.697 514.626 168.61 515.035 168.443C515.447 168.272 515.83 168.014 516.18 167.668C516.535 167.322 516.839 166.927 517.085 166.485C517.335 166.043 517.535 165.564 517.685 165.052C517.91 164.339 518.022 163.656 518.022 162.997C518.022 161.96 517.76 161.152 517.235 160.581C516.714 160.006 516.055 159.718 515.264 159.718C514.651 159.718 514.093 159.864 513.589 160.16C513.085 160.452 512.626 160.877 512.218 161.439C511.814 162.002 511.514 162.656 511.322 163.402C511.13 164.147 511.035 164.814 511.035 165.397ZM509.076 165.593C509.076 163.352 509.739 161.493 511.055 160.022C512.143 158.81 513.572 158.206 515.339 158.206C516.722 158.206 517.839 158.639 518.685 159.502C519.535 160.368 519.96 161.539 519.96 163.01C519.96 164.327 519.689 165.556 519.155 166.693C518.622 167.827 517.864 168.697 516.88 169.302C515.897 169.91 514.86 170.21 513.772 170.21C512.876 170.21 512.064 170.018 511.335 169.639C510.601 169.256 510.043 168.714 509.655 168.014C509.268 167.314 509.076 166.51 509.076 165.593Z" fill="#78B8BD"/>
<path d="M521.317 169.951L524.626 154.097H526.584L523.276 169.951H521.317Z" fill="#78B8BD"/>
<path d="M529.114 165.397C529.114 166.481 529.372 167.302 529.893 167.856C530.41 168.418 531.072 168.697 531.872 168.697C532.289 168.697 532.705 168.61 533.114 168.443C533.526 168.272 533.91 168.014 534.26 167.668C534.614 167.322 534.918 166.927 535.164 166.485C535.414 166.043 535.614 165.564 535.764 165.052C535.989 164.339 536.101 163.656 536.101 162.997C536.101 161.96 535.839 161.152 535.314 160.581C534.793 160.006 534.135 159.718 533.343 159.718C532.73 159.718 532.172 159.864 531.668 160.16C531.164 160.452 530.705 160.877 530.297 161.439C529.893 162.002 529.593 162.656 529.401 163.402C529.21 164.147 529.114 164.814 529.114 165.397ZM527.155 165.593C527.155 163.352 527.818 161.493 529.135 160.022C530.222 158.81 531.651 158.206 533.418 158.206C534.801 158.206 535.918 158.639 536.764 159.502C537.614 160.368 538.039 161.539 538.039 163.01C538.039 164.327 537.768 165.556 537.235 166.693C536.701 167.827 535.943 168.697 534.96 169.302C533.976 169.91 532.939 170.21 531.851 170.21C530.955 170.21 530.143 170.018 529.414 169.639C528.68 169.256 528.122 168.714 527.735 168.014C527.347 167.314 527.155 166.51 527.155 165.593Z" fill="#78B8BD"/>
<path d="M541.885 164.869C541.885 165.652 541.96 166.248 542.115 166.639C542.327 167.198 542.64 167.619 543.04 167.91C543.44 168.206 543.881 168.352 544.373 168.352C545.015 168.352 545.652 168.127 546.285 167.673C546.923 167.223 547.435 166.527 547.831 165.581C548.223 164.635 548.419 163.735 548.419 162.877C548.419 161.931 548.156 161.181 547.635 160.623C547.11 160.064 546.465 159.785 545.694 159.785C545.219 159.785 544.756 159.914 544.306 160.169C543.86 160.427 543.448 160.814 543.06 161.335C542.673 161.86 542.381 162.485 542.185 163.214C541.985 163.939 541.885 164.494 541.885 164.869ZM539.444 170.989L541.423 171.173C541.406 171.619 541.46 171.956 541.585 172.177C541.706 172.402 541.902 172.577 542.169 172.698C542.519 172.856 542.977 172.935 543.54 172.935C544.723 172.935 545.573 172.631 546.094 172.019C546.431 171.606 546.748 170.71 547.035 169.335L547.227 168.406C546.21 169.435 545.131 169.952 543.985 169.952C542.823 169.952 541.852 169.523 541.069 168.669C540.29 167.814 539.898 166.606 539.898 165.044C539.898 163.752 540.206 162.564 540.823 161.485C541.435 160.402 542.169 159.585 543.023 159.035C543.873 158.481 544.748 158.206 545.648 158.206C547.156 158.206 548.319 158.919 549.131 160.348L549.523 158.464H551.315L549.002 169.552C548.752 170.769 548.419 171.719 548.006 172.402C547.598 173.081 547.023 173.61 546.294 173.985C545.56 174.36 544.715 174.548 543.756 174.548C542.835 174.548 542.04 174.427 541.373 174.189C540.706 173.952 540.21 173.606 539.881 173.148C539.552 172.689 539.39 172.164 539.39 171.573C539.39 171.394 539.406 171.198 539.444 170.989Z" fill="#78B8BD"/>
<path d="M551.553 174.384L551.674 172.546C552.078 172.659 552.47 172.721 552.849 172.721C553.249 172.721 553.565 172.629 553.815 172.45C554.132 172.213 554.478 171.763 554.853 171.109L555.478 169.984L553.565 158.467H555.49L556.353 164.275C556.528 165.421 556.674 166.567 556.799 167.713L561.936 158.467H563.978L556.657 171.475C555.953 172.742 555.324 173.584 554.774 173.996C554.228 174.404 553.599 174.613 552.882 174.613C552.428 174.613 551.986 174.538 551.553 174.384Z" fill="#78B8BD"/>
<path d="M99.765 162.83C99.765 163.767 99.002 164.53 98.065 164.53C97.127 164.53 96.369 163.767 96.369 162.83C96.369 161.892 97.127 161.13 98.065 161.13C99.002 161.13 99.765 161.892 99.765 162.83Z" fill="#78B8BD"/>
<path d="M130.984 136.412C124.2 140.195 115.634 137.762 111.85 130.983C108.071 124.195 110.5 115.633 117.284 111.849C124.067 108.066 132.634 110.495 136.417 117.283C140.2 124.066 137.767 132.629 130.984 136.412Z" fill="#123952"/>
<path d="M123.049 49.65C129.257 47.817 135.774 51.359 137.612 57.567C139.445 63.775 135.899 70.296 129.691 72.129C123.487 73.963 116.966 70.421 115.132 64.213C113.295 58.004 116.841 51.484 123.049 49.65Z" fill="#123952"/>
<path d="M53.99 97.65C56.098 91.529 62.769 88.279 68.89 90.392C75.01 92.5 78.26 99.171 76.148 105.292C74.04 111.409 67.369 114.663 61.252 112.554C55.131 110.442 51.881 103.771 53.99 97.65Z" fill="#123952"/>
<path d="M69.96 72.352C73.872 67.197 81.222 66.189 86.38 70.102C91.535 74.014 92.543 81.368 88.63 86.527C84.718 91.681 77.368 92.685 72.21 88.777C67.055 84.86 66.047 77.51 69.96 72.352Z" fill="#123952"/>
<path d="M94.526 55.544C99.851 51.869 107.151 53.203 110.83 58.528C114.509 63.857 113.172 71.157 107.842 74.836C102.517 78.511 95.222 77.174 91.542 71.853C87.863 66.524 89.201 59.224 94.526 55.544Z" fill="#123952"/>
<path d="M49.159 126.3C49.255 119.829 54.575 114.659 61.05 114.754C67.525 114.85 72.692 120.175 72.596 126.646C72.5 133.121 67.175 138.288 60.705 138.192C54.234 138.1 49.063 132.775 49.159 126.3Z" fill="#123952"/>
<path d="M8.832 81.147C8.974 71.438 16.957 63.688 26.67 63.83C36.378 63.972 44.132 71.959 43.991 81.667C43.845 91.38 35.857 99.126 26.153 98.988C16.441 98.842 8.687 90.855 8.832 81.147Z" fill="#123952"/>
<path d="M31.072 48.509C31.214 38.801 39.197 31.051 48.91 31.192C58.618 31.334 66.372 39.322 66.23 49.03C66.085 58.742 58.097 66.488 48.393 66.351C38.68 66.205 30.926 58.222 31.072 48.509Z" fill="#123952"/>
<path d="M63.735 26.164C63.877 16.452 71.86 8.702 81.573 8.847C91.281 8.989 99.035 16.977 98.894 26.685C98.748 36.393 90.76 44.143 81.056 44.006C71.344 43.86 63.59 35.872 63.735 26.164Z" fill="#123952"/>
<path d="M114.82 0.727001C124.132 -2.028 133.912 3.289 136.662 12.602C139.416 21.91 134.095 31.693 124.782 34.447C115.474 37.197 105.699 31.881 102.941 22.572C100.191 13.26 105.507 3.477 114.82 0.727001Z" fill="#123952"/>
<path d="M0.00199787 119.597C0.143998 109.884 8.127 102.134 17.84 102.28C27.548 102.422 35.302 110.409 35.16 120.117C35.015 129.83 27.027 137.576 17.323 137.438C7.61 137.292 -0.144002 129.305 0.00199787 119.597Z" fill="#123952"/>
<path d="M129.578 87.736C132.682 86.819 135.941 88.59 136.857 91.694C137.774 94.799 136.003 98.057 132.899 98.974C129.795 99.89 126.537 98.119 125.62 95.019C124.703 91.911 126.474 88.653 129.578 87.736Z" fill="#123952"/>
<path d="M89.01 112.102C91.01 109.556 94.693 109.118 97.239 111.118C99.785 113.118 100.222 116.802 98.222 119.347C96.222 121.893 92.539 122.335 89.993 120.331C87.451 118.331 87.01 114.647 89.01 112.102Z" fill="#123952"/>
<path d="M97.029 98.324C98.987 95.745 102.658 95.241 105.237 97.199C107.816 99.153 108.32 102.832 106.366 105.412C104.408 107.987 100.733 108.491 98.154 106.537C95.575 104.578 95.07 100.903 97.029 98.324Z" fill="#123952"/>
<path d="M112.306 88.817C114.968 86.975 118.618 87.646 120.456 90.308C122.297 92.971 121.627 96.621 118.964 98.462C116.302 100.3 112.652 99.629 110.814 96.971C108.977 94.304 109.643 90.654 112.306 88.817Z" fill="#123952"/>
<path d="M87.461 131.401C87.507 128.163 90.17 125.584 93.407 125.63C96.645 125.676 99.228 128.342 99.178 131.576C99.132 134.813 96.47 137.397 93.236 137.351C89.999 137.301 87.415 134.638 87.461 131.401Z" fill="#123952"/>
<path d="M207.78 88.637C208.288 88.637 208.651 89.071 208.651 89.583V137.329C208.651 137.837 208.288 138.204 207.78 138.204H201.447C200.938 138.204 200.501 137.837 200.501 137.329V116.95H174.372V137.329C174.372 137.837 173.934 138.204 173.497 138.204H167.092C166.655 138.204 166.222 137.837 166.222 137.329V89.583C166.222 89.071 166.655 88.637 167.092 88.637H173.497C173.934 88.637 174.372 89.071 174.372 89.583V109.671H200.501V89.583C200.501 89.071 200.938 88.637 201.447 88.637H207.78Z" fill="#123952"/>
<path d="M253.477 122.408C253.477 127.65 251.802 131.871 248.673 134.708C245.619 137.329 241.394 138.783 235.865 138.783C230.332 138.783 226.111 137.329 223.057 134.708C219.927 131.871 218.252 127.65 218.252 122.408V99.554C218.252 99.046 218.615 98.608 219.123 98.608H224.802C225.311 98.608 225.748 99.046 225.748 99.554V122.117C225.748 125.467 226.694 127.867 228.657 129.687C230.332 131.217 232.952 131.946 235.865 131.946C238.773 131.946 241.394 131.217 243.069 129.687C245.036 127.867 245.982 125.467 245.982 122.117V99.554C245.982 99.046 246.344 98.608 246.857 98.608H252.607C253.111 98.608 253.477 99.046 253.477 99.554V122.408Z" fill="#123952"/>
<path d="M294.958 99.555C295.466 98.68 295.904 98.605 296.633 98.605H302.233C302.675 98.605 303.112 99.042 303.112 99.555V137.326C303.112 137.838 302.675 138.201 302.233 138.201H296.704C296.195 138.201 295.829 137.838 295.829 137.326V111.492L286.079 127.651C285.712 128.23 285.425 128.522 284.695 128.522H281.204C280.475 128.522 280.183 128.305 279.82 127.651L270.212 111.492V137.326C270.212 137.838 269.775 138.201 269.266 138.201H263.808C263.295 138.201 262.862 137.838 262.862 137.326V99.555C262.862 99.042 263.295 98.605 263.808 98.605H269.337C270.066 98.605 270.504 98.755 270.941 99.555L282.95 120.005L294.958 99.555Z" fill="#123952"/>
<path d="M322.899 107.925C321.299 109.746 320.495 112.292 320.495 115.275V119.133H338.837V115.275C338.837 112.292 338.037 109.746 336.507 107.925C334.837 106.029 332.507 105.012 329.666 105.012C326.903 105.012 324.499 106.029 322.899 107.925ZM346.332 137.329C346.332 137.837 345.899 138.2 345.462 138.2H339.787C339.274 138.2 338.837 137.837 338.837 137.329V125.537H320.495V137.329C320.495 137.837 320.132 138.2 319.624 138.2H313.945C313.437 138.2 312.999 137.837 312.999 137.329V114.912C312.999 110.692 314.457 106.104 317.512 102.9C320.278 100.062 324.207 98.029 329.666 98.029C335.124 98.029 339.128 100.062 341.824 102.9C344.878 106.104 346.332 110.692 346.332 114.912V137.329Z" fill="#123952"/>
<path d="M386.649 138.202C385.924 138.202 385.557 137.986 384.974 137.257L363.432 111.202V137.327C363.432 137.84 363.066 138.202 362.562 138.202H357.245C356.737 138.202 356.299 137.84 356.299 137.327V99.557C356.299 99.048 356.737 98.611 357.245 98.611H361.32C362.049 98.611 362.416 98.898 362.92 99.557L384.391 125.686V99.557C384.391 99.048 384.828 98.611 385.341 98.611H390.653C391.162 98.611 391.524 99.048 391.524 99.557V137.327C391.524 137.84 391.162 138.202 390.653 138.202H386.649Z" fill="#123952"/>
<path d="M464.008 137.327C464.008 137.84 463.645 138.202 463.137 138.202H457.02C456.583 138.202 456.145 137.84 456.145 137.327V102.832L442.683 125.465C442.32 126.123 441.954 126.34 441.229 126.34H436.641C435.841 126.34 435.55 126.123 435.187 125.465L421.429 102.832V137.327C421.429 137.84 421.066 138.202 420.558 138.202H414.445C414.008 138.202 413.566 137.84 413.566 137.327V89.586C413.566 89.073 414.008 88.636 414.445 88.636H420.92C421.65 88.636 422.087 88.711 422.52 89.586L438.754 116.948L454.983 89.586C455.491 88.711 455.929 88.636 456.658 88.636H463.137C463.645 88.636 464.008 89.073 464.008 89.586V137.327Z" fill="#123952"/>
<path d="M503.009 98.609C503.521 98.609 503.884 99.046 503.884 99.554V104.359C503.884 104.867 503.521 105.229 503.009 105.229H481.613V114.984H500.025C500.534 114.984 500.971 115.421 500.971 115.929V120.734C500.971 121.246 500.534 121.679 500.025 121.679H481.613V131.579H503.009C503.521 131.579 503.884 132.017 503.884 132.454V137.325C503.884 137.842 503.521 138.2 503.009 138.2H475.059C474.55 138.2 474.113 137.842 474.113 137.325V99.554C474.113 99.046 474.55 98.609 475.059 98.609H503.009Z" fill="#123952"/>
<path d="M517.998 131.796H524.765C527.969 131.796 530.882 131.287 533.282 130.05C537.432 127.937 539.469 123.867 539.469 118.479C539.469 114.329 538.302 111.271 536.34 109.162C533.865 106.471 529.936 105.083 525.061 105.083H517.998V131.796ZM511.448 138.204C510.936 138.204 510.502 137.837 510.502 137.329V99.554C510.502 99.046 510.936 98.608 511.448 98.608H526.002C532.336 98.608 538.015 100.062 542.452 104.796C545.29 107.925 547.111 112.362 547.111 118.479C547.111 125.758 544.273 131.946 538.232 135.362C534.227 137.621 529.715 138.204 525.132 138.204H511.448Z" fill="#123952"/>
<path d="M555.832 93.97H553.748V96.607H555.786C556.898 96.607 557.59 96.237 557.59 95.266C557.59 94.295 556.852 93.97 555.832 93.97ZM557.173 97.674L559.211 100.407C559.49 100.87 559.261 101.053 558.89 101.053H558.24C557.869 101.053 557.777 101.007 557.59 100.637L555.598 97.907H553.748V100.591C553.748 100.87 553.565 101.053 553.286 101.053H552.686C552.402 101.053 552.219 100.87 552.219 100.591V93.137C552.219 92.857 552.402 92.674 552.686 92.674H556.015C557.732 92.674 559.169 93.412 559.169 95.312C559.169 96.657 558.286 97.349 557.173 97.674ZM562.732 96.932C562.732 92.949 559.627 89.803 555.648 89.803C551.661 89.803 548.561 92.949 548.561 96.932C548.561 100.824 551.661 104.02 555.648 104.02C559.586 104.02 562.732 100.824 562.732 96.932ZM564.215 96.932C564.215 101.612 560.415 105.407 555.648 105.407C550.877 105.407 547.077 101.612 547.077 96.932C547.077 92.212 550.923 88.416 555.648 88.416C560.369 88.416 564.215 92.212 564.215 96.932Z" fill="#123952"/>
</g>
<defs>
<clipPath id="clip0_1_2">
<rect width="565" height="175" fill="white"/>
</clipPath>
</defs>
</svg>
