<?xml version="1.0" standalone="no"?>
<!DOCTYPE svg PUBLIC "-//W3C//DTD SVG 20010904//EN"
 "http://www.w3.org/TR/2001/REC-SVG-20010904/DTD/svg10.dtd">
<svg version="1.0" xmlns="http://www.w3.org/2000/svg"
 width="500.000000pt" height="500.000000pt" viewBox="0 0 500.000000 500.000000"
 preserveAspectRatio="xMidYMid meet">
<metadata>
Created by potrace 1.11, written by Peter Selinger 2001-2013
</metadata>
<g transform="translate(0.000000,500.000000) scale(0.100000,-0.100000)"
fill="#000000" stroke="none">
<path d="M1096 4977 c-28 -41 -39 -126 -32 -237 9 -154 20 -211 91 -465 166
-598 223 -888 247 -1258 30 -476 -53 -995 -262 -1627 -75 -225 -172 -483 -275
-730 -96 -231 -130 -325 -150 -418 -17 -84 -20 -194 -5 -223 26 -48 90 -3 167
117 55 85 428 819 506 994 167 376 261 701 314 1085 25 185 25 765 0 980 -35
295 -83 575 -152 875 -40 177 -123 483 -157 579 -67 191 -179 351 -246 351
-22 0 -36 -7 -46 -23z"/>
<path d="M1645 4967 c-21 -82 144 -459 317 -727 323 -498 515 -881 613 -1220
67 -232 80 -327 79 -585 0 -212 -2 -240 -27 -360 -41 -190 -97 -348 -192 -540
-85 -173 -177 -322 -287 -468 -178 -237 -430 -508 -690 -743 -192 -175 -234
-247 -174 -303 23 -22 31 -23 138 -19 100 3 119 7 168 32 64 34 135 87 280
211 531 454 892 978 1064 1546 122 405 128 873 16 1295 -155 586 -510 1162
-1065 1732 -158 163 -226 205 -240 149z"/>
<path d="M2116 4975 c-8 -21 15 -84 55 -151 70 -115 205 -267 493 -552 309
-306 447 -452 601 -637 394 -472 614 -898 669 -1294 41 -288 0 -536 -129 -796
-85 -169 -172 -290 -324 -447 -264 -274 -575 -488 -1062 -733 -124 -63 -248
-131 -275 -153 -160 -127 -72 -237 164 -203 201 29 573 203 907 426 474 316
810 698 970 1104 323 818 -51 1751 -1087 2709 -582 538 -950 810 -982 727z"/>
</g>
</svg>
